<?xml version="1.0" encoding="UTF-8"?>
<svg width="94px" height="80px" viewBox="0 0 94 80" version="1.1" xmlns="http://www.w3.org/2000/svg" xmlns:xlink="http://www.w3.org/1999/xlink">
    <!-- Generator: Sketch 46 (44423) - http://www.bohemiancoding.com/sketch -->
    <title>Fill 1</title>
    <desc>Created with Sketch.</desc>
    <defs></defs>
    <g id="Mobile" stroke="none" stroke-width="1" fill="none" fill-rule="evenodd">
        <g id="0.0-Splash" transform="translate(-141.000000, -30.000000)" fill="#000000">
            <path d="M160.395525,63.13043 C160.510485,63.1872286 160.682244,63.2932526 160.868543,63.356564 C160.986533,63.3967017 161.147387,63.4192697 161.252653,63.3708015 C161.768233,63.1333078 162.285478,62.8930878 162.775915,62.6084891 C163.320272,62.2925376 163.836306,61.928118 164.364003,61.58354 C164.454123,61.524621 164.537882,61.4558569 164.628608,61.3981495 C164.801579,61.288339 164.819906,61.1494475 164.75402,60.9616336 C164.423982,60.0212009 164.086674,59.0827371 163.7839,58.133368 C163.326634,56.6996208 162.87164,55.2645104 162.459812,53.8174344 C161.844721,51.6563626 161.532708,49.4294045 161.095738,47.2295582 C160.919284,46.3407743 160.797962,45.4406306 160.613026,44.5536642 C160.327973,43.1879238 160.010658,41.8289992 159.704854,40.4678027 C159.59777,39.9902403 159.315292,39.7533525 158.862721,39.8639203 C158.380009,39.9819099 155.562497,41.0775921 155.470559,41.5221355 C155.455565,41.595292 155.397403,41.6589064 155.378016,41.7319115 C155.359537,41.80113 155.35151,41.8791334 155.363324,41.9492607 C155.521602,42.8859069 155.686697,43.8214929 155.845278,44.7581391 C156.029457,45.8474598 156.197429,46.9396583 156.394786,48.0267071 C156.545643,48.856572 156.737395,49.6790152 156.899611,50.5070626 C157.09727,51.516108 157.277511,52.5284856 157.475624,53.5375311 C157.760223,54.9861217 158.166598,56.4024507 158.6328,57.8024217 C158.976773,58.8353983 159.314686,59.8704953 159.656538,60.9042292 C159.895849,61.628373 160.136826,62.351911 160.395525,63.13043 M185.251486,92.0880044 C185.063672,91.5189586 184.860712,90.9547595 184.67835,90.383896 C184.084162,88.5242353 183.475432,86.6688155 182.911536,84.7997641 C182.316742,82.8281723 181.794195,80.8346184 181.190313,78.8660559 C180.577494,76.8684125 179.903181,74.889399 179.257041,72.9019036 C178.638921,71.0005906 177.987328,69.1121519 177.092788,67.318529 C176.761842,66.6549703 176.362132,66.0388195 175.827468,65.5144551 C175.412611,65.1074745 174.939138,65.00554 174.387056,65.1530648 C173.926609,65.2760526 173.461618,65.382531 172.996324,65.4861316 C172.530576,65.5900351 172.102845,65.7598249 171.674205,65.9873221 C170.8919,66.4026332 170.497642,67.0493795 170.35042,67.8690964 C170.201532,68.6975981 170.049009,69.5329157 170.002359,70.3709596 C169.926476,71.7348825 169.938896,73.1036521 169.905271,74.4703013 C169.89997,74.6823493 169.949801,74.9087863 169.82757,75.1750579 C169.61007,74.7079465 169.422559,74.3044495 169.234139,73.9012555 C168.244481,71.7822903 167.204385,69.69074 165.885144,67.7509554 C165.321551,66.9221507 164.714033,66.1301516 163.981559,65.4417529 C163.46704,64.9581321 162.183695,64.8333267 161.586023,65.2004726 C161.55982,65.2165277 161.531193,65.2304623 161.508777,65.2509098 C161.084227,65.6386546 160.686031,66.0574494 160.183477,66.3518932 C160.03989,66.435955 159.895546,66.5219859 159.764834,66.6240719 C159.59777,66.7547843 159.377998,66.8729253 159.299086,67.0493795 C159.151712,67.3791141 159.05311,67.7417162 159.001613,68.1003802 C158.951781,68.4472301 158.98374,68.806197 158.9848,69.1598627 C158.990404,71.2674681 159.183368,73.3621992 159.428586,75.4525379 C159.550211,76.4900583 159.700614,77.5242466 159.849653,78.5581319 C160.033529,79.8351151 160.226644,81.1104322 160.421728,82.3855979 C160.524117,83.0540034 160.639835,83.7201369 160.747676,84.3876337 C160.928826,85.5090645 161.090134,86.6339791 161.293397,87.7513204 C161.5215,89.0046754 161.789286,90.2506087 162.034959,91.500783 C162.155675,92.1158736 162.249733,92.7364169 162.385595,93.3478723 C162.480714,93.7759063 162.594008,94.1993964 162.69049,94.6277333 C163.024466,96.1088884 163.416906,97.5768663 163.786778,99.0499939 C163.797986,99.0943725 163.808437,99.1389025 163.817373,99.1837355 L165.113138,104.338925 C165.333214,104.862986 165.359568,105.465354 165.509365,106.022889 C165.796084,107.089036 166.091437,108.153668 166.424958,109.20588 C166.501598,109.447009 166.708648,109.691924 166.92221,109.837177 C167.771917,110.415008 171.154385,109.28252 171.51835,109.110004 C171.791135,108.980655 171.85384,108.79481 171.75342,108.526115 C171.656636,108.267265 171.532285,108.017806 171.449434,107.755169 C171.079714,106.582847 170.689697,105.415674 170.364203,104.231235 L169.250497,99.8369948 C168.800804,98.114105 168.360047,96.3889432 167.920199,94.6633271 C167.54442,93.1894422 167.168943,91.7155573 166.80619,90.2384917 C166.571725,89.2838214 166.364676,88.3224868 166.135815,87.3663019 C166.083106,87.1462264 165.580704,84.0374516 165.407279,82.6963996 C165.227795,81.3094544 165.045131,79.9229636 164.858832,78.5369271 C164.693283,77.3061401 164.520918,76.0764133 164.351583,74.8463836 C164.486385,74.9549824 164.561662,75.0832715 164.618158,75.2192851 C165.43227,77.1773967 166.288187,79.1196047 167.044289,81.0998298 C167.921108,83.3963094 168.704322,85.7283827 169.540094,88.0407659 C169.769409,88.6749408 169.964644,89.3289574 170.369353,89.8851289 C170.700148,90.3395174 171.120154,90.7190833 171.703135,90.6642537 C172.301716,90.608061 174.682106,89.4022654 175.200715,89.1687097 C175.580281,88.9977081 175.727957,88.7278013 175.690697,88.3006761 C175.514394,86.2791016 175.365355,84.2551037 175.193596,82.2332263 C175.137706,81.5748173 175.021231,80.9215581 174.968976,80.2633006 C174.886278,79.2224479 174.837658,78.1787175 174.76844,77.1366532 C174.708763,76.2384785 174.640605,75.3410612 174.576233,74.4431895 C174.619703,74.4316783 174.663173,74.4203186 174.706643,74.408656 C174.863407,74.9484695 175.02214,75.4875258 175.176935,76.0279452 C175.591337,77.4733551 176.005437,78.9187649 176.41681,80.3650836 C176.769415,81.6038982 177.118234,82.8440759 177.468568,84.0836478 C177.752863,85.089361 178.031858,86.0964374 178.322515,87.1001817 C178.55698,87.9095991 178.808105,88.7141697 179.046659,89.5223754 C179.285819,90.3325501 179.494989,91.152267 179.759746,91.9538084 C180.057976,92.8566783 180.310768,93.7802987 180.818168,94.6025905 C180.978568,94.8626522 181.102767,95.1455848 181.239992,95.4197325 C181.343896,95.6273881 181.436743,95.864276 181.684687,95.9177423 C182.040776,95.9948369 182.406711,96.0726888 182.767344,96.067842 C183.114951,96.0632981 183.466345,95.974238 183.807136,95.8876012 C184.667142,95.668586 185.3151,95.0860599 186.000167,94.5703289 C186.034852,94.5441258 186.049695,94.4929314 186.077867,94.4564289 C186.313089,94.1507768 186.333536,94.1160919 186.105282,93.8161954 C185.706632,93.2931943 185.455203,92.7044582 185.251486,92.0880044 M203.677243,60.6367458 C203.502758,61.9379631 202.947495,63.1045299 202.481293,64.3047214 C202.453726,64.375606 202.408136,64.4398263 202.367544,64.5048038 C202.336494,64.5543322 202.29984,64.6002254 202.216687,64.7156401 C202.151255,64.2982085 202.094608,63.9534791 202.043868,63.6079924 C201.990401,63.2434213 201.950415,62.8767298 201.890739,62.5132189 C201.736701,61.573695 201.549039,60.6388663 201.424233,59.6957072 C201.315634,58.8735669 201.241721,58.043702 201.210974,57.2152003 C201.159779,55.834768 201.408027,54.489475 201.796832,53.1687191 C201.905128,52.8008158 202.016453,52.4336699 202.147771,51.9957908 C202.650174,52.473959 202.913567,53.0219516 203.124858,53.5720646 C203.571976,54.7363595 203.901862,55.9370054 203.96169,57.1959645 C204.016823,58.3560184 203.830675,59.4930499 203.677243,60.6367458 M213.841611,76.9651972 C213.654555,76.0630846 213.550803,75.1417361 213.32891,74.2491656 C212.817874,72.1923002 212.267761,70.1448256 211.711741,68.0997743 C211.385036,66.8977652 210.951094,65.7305926 210.367963,64.6276402 C209.679412,63.3253627 208.683393,62.4047716 207.16831,62.1677322 C207.096214,62.1563725 207.027147,62.1247168 206.893254,62.0826101 C206.995945,61.8325449 207.089246,61.6398842 207.156042,61.4384386 C207.841411,59.372637 208.19023,57.2615479 207.919869,55.084724 C207.714939,53.4336276 207.201329,51.8773469 206.339202,50.4467804 C205.514336,49.0783136 204.149353,48.4827617 202.559144,48.7475188 C201.373342,48.9451778 200.342183,49.4724199 199.412655,50.1977755 C199.044298,50.4852519 198.708202,50.8511862 198.459803,51.2458983 C198.127645,51.7745036 197.847287,52.3480934 197.629332,52.9339517 C197.156616,54.204422 196.875047,55.5316908 196.697533,56.8709253 C196.485182,58.473705 196.581058,60.0925398 196.616651,61.7027413 C196.634524,62.5115529 196.80189,63.3188498 196.926999,64.1228145 C196.994854,64.5581187 197.129353,64.9825176 197.21084,65.4161557 C197.338523,66.0947093 197.422737,66.7820476 197.567687,67.4565116 C198.033435,69.6201583 198.600209,71.7585107 199.212724,73.8852004 C199.527313,74.9773989 199.806913,76.0797455 200.118169,77.1727013 C200.909108,79.949924 201.712922,82.7236629 202.502952,85.5011885 C202.700156,86.1944339 202.861919,86.8975244 203.047764,87.5942535 C203.106531,87.814026 203.430056,89.5953805 205.47132,89.1391744 C205.720477,89.0834361 205.937977,89.0390575 206.165778,88.9359113 C206.620923,88.7294674 207.088641,88.5327172 207.57105,88.4120013 C207.85065,88.3420255 208.08572,88.2222184 208.319731,88.081055 C208.500577,87.9720018 208.610236,87.8076646 208.594939,87.5833481 C208.582216,87.4000781 208.596453,87.2086291 208.548137,87.0349012 C208.228247,85.8819661 207.898512,84.7317573 207.564234,83.5827602 C207.328406,82.7716766 207.034417,81.9745277 206.848118,81.1525389 C206.579725,79.968251 206.253626,78.8019871 205.882996,77.6489005 C205.365751,76.0394564 204.955741,74.4041121 204.590867,72.7551362 C204.41517,71.9616223 204.226447,71.170229 204.013491,70.3859544 C203.760093,69.4530948 203.469739,68.5302317 203.205436,67.6004013 C203.13122,67.3389765 203.091688,67.0677065 203.025498,66.7481199 C203.894289,66.6740546 204.415019,65.9971672 205.171424,65.7149919 C205.56553,66.1698348 205.852552,66.6975314 206.090652,67.2437063 C206.7065,68.6567032 207.102727,70.143008 207.463814,71.6359772 C207.78855,72.9774836 208.073301,74.3289865 208.36002,75.6794292 C208.529052,76.4746091 208.671276,77.2753931 208.818498,78.074814 C208.936184,78.7147445 209.158077,79.316052 209.461457,79.8891874 C209.5746,80.1029014 209.743784,80.2478514 209.971433,80.3317618 C210.545477,80.5430524 211.125428,80.4891317 211.687052,80.318433 C212.140078,80.1809048 212.591134,80.0058137 213.004476,79.7775592 C213.388889,79.5655113 213.730286,79.270916 214.075621,78.994042 C214.28464,78.8262211 214.33538,78.6111439 214.237838,78.3344213 C214.079862,77.8870001 213.93779,77.4294308 213.841611,76.9651972 M167.921865,33.3096689 C167.932619,33.2808909 167.941555,33.2512042 167.95549,33.2239409 C168.106498,32.9293457 168.284164,32.6588331 168.356866,32.6302066 C168.401699,32.6124854 168.620866,32.8939034 168.754911,33.1029221 C169.036329,33.5420129 169.36364,33.9591415 169.589319,34.4251927 C170.156093,35.5955461 170.489766,36.8299682 170.510819,38.1446656 C170.532176,39.4769328 170.258179,40.7422533 169.63597,41.9101833 C169.261251,42.6137282 168.659338,43.1229462 167.857948,43.437989 C167.745411,43.134003 167.615304,42.8400137 167.526698,42.5340587 C167.099573,41.0618399 166.932813,39.5508466 166.952654,38.0248585 C166.973708,36.3961786 167.355697,34.8315675 167.921865,33.3096689 M162.345912,41.3849102 C162.338642,42.1005721 162.468748,42.8215352 162.579165,43.533562 C162.672617,44.1354753 162.871034,44.7223938 162.946159,45.3255189 C163.152149,46.9784328 163.580789,48.5821214 163.979893,50.191717 C164.3016,51.4885418 164.672987,52.7730981 165.029531,54.0612896 C165.30383,55.0530683 165.541778,56.05863 165.884538,57.0266291 C166.166714,57.8239294 166.358768,58.6395568 166.583388,59.4495801 C166.701983,59.8770082 166.842541,60.303679 167.027325,60.7058129 C167.236647,61.1609587 167.383263,61.2113958 167.870973,61.1371791 C167.961094,61.1235474 168.046216,61.0796232 168.136033,61.0626593 C168.420178,61.0090415 168.706745,60.9672377 168.990132,60.9096819 C169.197485,60.8675752 169.427103,60.8515201 169.601588,60.7479196 C170.110654,60.4451453 170.677731,60.3153417 171.234206,60.1659993 C171.820973,60.008478 172.067706,59.6917692 171.961682,59.1009126 C171.94805,59.0253327 171.937902,58.948541 171.916849,58.8750815 C171.588174,57.7245698 171.255411,56.5754213 170.92916,55.4243037 C170.686365,54.5679328 170.437663,53.7129251 170.217284,52.8506471 C169.98903,51.9580766 169.80576,51.0538434 169.575233,50.1617273 C169.441189,49.6426642 169.234442,49.1423824 169.093733,48.6246824 C168.934243,48.0377639 168.812012,47.4408489 168.666608,46.8183366 C169.312597,46.4934488 169.938593,46.1785576 170.591549,45.8501861 C170.820106,46.4158998 171.02958,46.9254208 171.232085,47.4376682 C171.745847,48.7370679 172.259761,50.0364676 172.766555,51.3385936 C172.972545,51.8681077 173.037674,52.4301863 173.14809,52.9842373 C173.348173,53.9894962 173.655945,54.9726415 173.882836,55.9733565 C174.090038,56.8863745 174.275277,57.8062083 174.423862,58.730586 C174.642877,60.093903 174.822512,61.4635815 175.015021,62.830988 C175.106656,63.480915 175.537568,63.8624499 176.189918,63.8816857 C177.419948,63.9181882 178.509875,63.493335 179.529826,62.8593115 C180.068124,62.5248816 180.255635,62.0029406 180.166272,61.3889103 C180.013295,60.3395757 179.882734,59.28494 179.675684,58.2459049 C179.273096,56.2264509 178.884291,54.2010898 178.378254,52.2064757 C177.80224,49.9354418 176.881649,47.7830034 175.795812,45.7070537 C175.314312,44.7863111 174.718457,43.949479 173.805288,43.3910355 C173.556586,43.2389668 173.317426,43.0712974 173.050851,42.895752 C173.130369,42.765191 173.202314,42.6320552 173.28789,42.5081586 C173.957811,41.5389479 174.33571,40.452202 174.504743,39.300933 C174.764502,37.5312411 174.755868,35.7668505 174.100186,34.0694065 C173.840881,33.3981232 173.549012,32.7239621 173.164903,32.1190195 C172.273544,30.7155648 170.854791,30.1968046 169.286697,30.0279235 C168.263262,29.9178101 167.268606,30.1500026 166.290004,30.4330866 C165.128436,30.7690312 164.314777,31.5087757 163.786778,32.5879484 C163.43599,33.3048221 163.095502,34.0256337 162.91314,34.8058188 C162.748803,35.5083035 162.581285,36.2126057 162.471626,36.9247839 C162.244129,38.4035156 162.36121,39.8979995 162.345912,41.3849102 M234.33938,93.410578 C233.863636,92.2799079 233.444689,91.123792 233.039678,89.9651013 C232.274487,87.7764633 232.183155,87.7554099 231.459314,85.5528373 C230.755012,83.4099411 230.074793,81.2585629 229.424714,79.0987028 C228.690574,76.6599996 227.990512,74.210997 227.296813,71.7603282 C226.720042,69.7225472 226.174927,67.6758298 225.613909,65.6335049 C225.178605,64.0482948 224.710888,62.4711123 224.31042,60.8772688 C223.790145,58.8070747 223.314097,56.7256724 222.834717,54.6454818 C222.48605,53.1328224 222.157679,51.5935055 221.995765,50.051008 C221.875655,48.9083723 221.782051,47.7598296 221.370829,46.6629357 C221.25087,46.3428947 221.084413,46.2244508 220.784819,46.1943097 C220.001756,46.115549 219.365613,46.5207121 218.715383,46.8480233 C218.450928,46.9811592 218.250392,47.2378887 218.012444,47.4279745 C217.759046,47.6301774 217.587439,47.8690343 217.589256,48.2075538 C217.591831,48.7287374 217.558661,49.2526474 217.600162,49.7706503 C217.704822,51.0721704 217.837504,52.3715701 217.968822,53.6706669 C218.069091,54.6624456 218.259631,55.6427131 218.247665,56.6482749 C218.223734,58.6469785 218.177235,60.6437131 218.010475,62.6362068 C217.950798,63.3512628 217.902027,64.0670762 217.848258,64.7822837 C217.755108,64.7286659 217.723301,64.6621737 217.703459,64.5923493 C217.344947,63.321879 216.990978,62.0498941 216.629133,60.7801811 C216.275771,59.5398519 215.930284,58.2969479 215.551627,57.0643433 C215.285658,56.1985817 214.940474,55.3567512 214.684199,54.4885663 C214.376275,53.4448358 214.147415,52.3777801 213.840854,51.3335953 C213.668641,50.7475856 213.382225,50.1958065 213.193502,49.6135833 C212.819994,48.4595879 212.545544,47.281207 212.448456,46.0672324 C212.420435,45.7168988 212.260188,45.4494155 211.924092,45.3240042 C211.739156,45.2550886 211.541194,45.202531 211.345655,45.1860216 C211.0397,45.1605758 210.73011,45.1586068 210.422944,45.170118 C209.53522,45.2031369 208.724894,45.4292709 208.091173,46.1078244 C207.673742,46.5546398 207.631029,46.8999751 207.913356,47.4385769 C208.060729,47.719389 208.181294,48.0214059 208.264598,48.3272094 C208.534959,49.3195939 208.756398,50.3257616 209.044329,51.3128449 C209.534463,52.993931 210.070641,54.6615368 210.568802,56.3405024 C210.970936,57.6953375 211.349745,59.0571399 211.730219,60.4183364 C212.019513,61.4540393 212.2873,62.4959522 212.580229,63.5305948 C212.809998,64.3424357 213.07218,65.1451887 213.304978,65.9561208 C213.652283,67.1660059 213.949756,68.3911888 214.334623,69.588654 C214.903214,71.3578915 215.519517,73.1122855 216.138242,74.864862 C216.346958,75.45587 216.594751,76.3685851 217.238923,76.6690874 C217.580623,76.8287292 222.542697,77.0127566 221.51381,73.0314044 C221.384158,72.5297594 221.695414,71.3465317 221.729039,71.3363837 C221.763269,71.4369551 221.831882,71.6453679 221.859903,71.7476053 C222.349279,73.524113 222.820631,75.3056189 223.329395,77.0765224 C224.007949,79.438131 224.701497,81.7956501 225.415038,84.1468078 C225.883059,85.6890024 226.374404,87.2248356 226.897557,88.7488547 C227.585955,90.7542227 227.640936,90.5777685 228.36402,92.5710194 C228.866422,93.95645 229.331564,95.3579357 229.913182,96.7120135 C230.577952,98.2592064 232.756139,96.9947946 232.978335,96.8660512 C233.241275,96.7139825 233.513453,96.5781203 233.774575,96.4236282 C233.918768,96.3382032 234.037969,96.2061276 234.187766,96.135243 C234.475394,95.998775 234.594292,95.7665824 234.605349,95.472896 C234.631249,94.7722289 234.624888,94.0892829 234.33938,93.410578 M192.463692,86.6922922 C192.39205,87.0686774 192.329647,87.4477889 192.23468,87.8185699 C192.188635,87.9983563 192.077159,88.1614818 191.995217,88.3321804 C191.944326,88.3291512 191.893434,88.325819 191.842543,88.3227897 C191.733489,88.1089242 191.637008,87.8874855 191.519775,87.6801329 C187.648082,80.8347699 190.535873,73.5940888 190.747163,72.7961826 C190.880905,72.2916599 191.090681,71.8192473 191.393455,71.290642 C191.460402,71.4890583 191.518109,71.6112888 191.542646,71.7395778 C191.834364,73.263294 192.136683,74.7851926 192.401289,76.3134526 C192.505647,76.9168806 192.531547,77.534849 192.578652,78.1473647 C192.699671,79.7256075 192.818266,81.3036988 192.81145,82.8889089 C192.805998,84.1680126 192.702549,85.4357565 192.463692,86.6922922 M196.918214,72.6077628 C196.727371,72.1741247 196.523956,71.7394264 196.398393,71.2850378 C196.042456,69.9974522 195.732108,68.6979011 195.263482,67.4430314 C194.621128,65.7240797 193.850788,64.071923 192.79479,62.5638075 C192.210597,61.7293988 191.564608,60.9530002 190.73232,60.3474518 C189.536067,59.4772978 188.221066,59.2087542 186.80292,59.6305782 C185.734955,59.9480443 184.873737,60.6300815 184.051749,61.3566487 C183.115557,62.1840902 182.631936,63.3012801 182.132411,64.4027179 C181.904914,64.9046657 181.73361,65.4319079 181.533376,65.9464271 C181.199552,66.8049185 180.977659,67.6953685 180.822258,68.5991473 C180.668826,69.4921722 180.550837,70.3920129 180.44451,71.2918537 C180.399828,71.6705108 180.398465,72.0594673 180.42588,72.4400934 C180.452689,72.8128435 180.672007,73.091838 181.055965,73.1271289 C181.418719,73.1604507 181.803283,73.171356 182.152253,73.085931 C182.607399,72.9746058 183.048762,72.7836112 183.474675,72.5820141 C184.167466,72.2540971 184.842536,71.8889202 185.525785,71.541313 C185.809626,71.3969689 185.968056,71.1688658 186.001075,70.8529144 C186.024855,70.6237511 186.031065,70.3912556 186.074383,70.1658789 C186.343533,68.7642418 186.554218,67.3488216 186.989825,65.9847472 C187.179305,65.3914673 187.414678,64.8128792 187.653686,64.1606803 C187.778643,64.3066904 187.857555,64.3766663 187.908901,64.4628486 C188.12928,64.8325694 188.377679,65.1913849 188.549135,65.5832192 C188.90583,66.3971805 189.234655,67.2243191 189.543488,68.0576676 C189.639667,68.3168206 189.612404,68.5965724 189.36037,68.814376 C188.585334,69.4839932 188.019924,70.3341541 187.432399,71.1562944 C186.669632,72.2231987 186.062872,73.379466 185.713296,74.6559948 C185.33782,76.0268849 185.159548,77.4292794 185.099569,78.8434879 C185.060037,79.7754388 185.126983,80.7119335 185.095176,81.6446417 C185.072305,82.313653 185.296773,82.9719105 185.151369,83.6410733 C185.307527,84.0114 185.338274,84.3915717 185.350542,84.7959775 C185.363568,85.2271922 185.533207,85.6553776 185.646198,86.081897 C185.986838,87.3673621 186.518775,88.5769444 187.185363,89.7209432 C187.587346,90.410705 188.067786,91.0582086 188.770876,91.4874543 C189.238442,91.7728103 189.688438,92.0857325 190.219618,92.262944 C190.503611,92.3577598 190.741862,92.3559422 191.011618,92.2334088 C192.233923,91.6790548 193.35187,90.9438542 194.493142,90.2486397 C195.484315,89.6447574 196.110008,88.7806619 196.400817,87.6475684 C196.865808,85.8368301 197.125567,83.9961022 197.200541,82.1347754 C197.272183,80.3523607 197.252038,78.5661594 197.079825,76.7872284 C197.049078,76.4696108 197.113601,76.2583202 197.416224,76.1232153 C197.895755,75.9090469 198.176416,75.5072159 198.337421,75.0287448 C198.463892,74.6532685 198.542804,74.2615856 198.653827,73.8341574 C198.14067,73.505786 197.781098,73.0377658 197.203418,72.8769123 C197.089973,72.845408 196.967591,72.7199968 196.918214,72.6077628 M156.284066,57.4489074 C155.926765,56.060902 155.421788,54.7275746 154.74172,53.4598306 C154.209783,52.4679005 153.568338,51.550793 152.92356,50.6330797 C152.063251,49.4083512 151.066626,48.3073678 149.991543,47.2683327 C149.18576,46.4895108 148.387551,45.6969057 147.649321,44.8547724 C146.003829,42.9779963 145.206226,40.7507353 145.152608,38.2709856 C145.136856,37.5506284 145.443416,36.9069113 146.10228,36.4799376 C146.799766,37.1085084 147.353817,37.8385592 147.763827,38.6408579 C148.130973,39.3590947 148.389369,40.1463985 148.598084,40.9293099 C148.952962,42.2606683 149.361154,43.5855138 149.404321,44.9836672 C149.417195,45.4059456 149.503529,45.8109573 149.882035,46.1161549 C150.054097,46.2547434 150.194957,46.3512252 150.400795,46.3027571 C150.578007,46.2609534 150.764457,46.2141513 150.917283,46.1211532 C151.649,45.6757009 152.369055,45.2110129 153.097137,44.7591993 C153.313577,44.6250032 153.416572,44.4305249 153.44232,44.1903049 C153.536985,43.3053075 153.632255,42.4204616 153.714045,41.5342525 C153.729343,41.3693095 153.698747,41.1957331 153.663911,41.0313959 C153.539711,40.4458406 153.38537,39.8660408 153.27768,39.2774562 C153.084414,38.2220631 152.70197,37.2411898 152.177454,36.310905 C151.896945,35.8133496 151.580539,35.3525997 151.112216,34.9983281 C150.691149,34.6798017 150.255997,34.4267073 149.748293,34.2591894 C149.088067,34.0415373 148.436019,33.836911 147.73414,33.8057097 C147.479077,33.7941985 147.234616,33.7399748 146.967284,33.7660264 C146.171498,33.8434239 145.442508,34.1368074 144.718061,34.4256471 C144.110695,34.6676847 143.541498,35.0055983 142.957002,35.3041315 C142.88945,35.3386651 142.826593,35.3874361 142.771006,35.4393879 C142.352666,35.8307678 141.995516,36.2744025 141.756054,36.7940715 C141.119758,38.1764728 140.911042,39.6465712 141.033273,41.1457503 C141.178677,42.9313458 141.764536,44.5933475 142.677099,46.1349363 C143.292493,47.1742743 144.085249,48.0716916 144.964339,48.8930746 C145.492187,49.386389 146.05154,49.8465331 146.57136,50.3478751 C147.478774,51.2230274 148.337417,52.1427098 149.069134,53.1765951 C149.771921,54.1698884 150.435783,55.1871129 150.952877,56.289005 C151.881799,58.2686243 152.422218,60.3551764 152.635932,62.5323033 C152.880696,65.0267448 153.004593,67.5202775 152.827381,70.0266846 C152.711512,71.6621803 152.414645,73.253146 151.868016,74.7976125 C151.804401,74.977096 151.751541,75.1676363 151.544491,75.3233401 C151.431651,75.1249237 151.321841,74.9604351 151.239748,74.7832236 C150.764003,73.7563055 150.508334,72.672286 150.388375,71.5488861 C150.226764,70.0353179 150.029257,68.5258393 149.87431,67.0116653 C149.737085,65.6721279 149.466421,64.3478883 149.608645,62.9789672 C149.74178,61.6986518 149.746324,60.4048562 149.808575,59.0971261 C149.420982,58.9091607 149.062318,58.9188543 148.727585,59.0326029 C148.268956,59.1886096 147.752316,59.2069366 147.370933,59.5654492 C147.330038,59.6037693 147.258547,59.6145231 147.198871,59.6270945 C146.609529,59.7499309 146.157109,60.1304056 145.670762,60.4445395 C145.587458,60.4983088 145.512483,60.6002433 145.482342,60.6953619 C145.240153,61.4610066 144.786068,63.4386569 144.779858,63.6532797 C144.758956,64.375606 144.737448,65.0979323 144.725028,65.8205615 C144.711094,66.6177104 144.663837,67.4174342 144.708367,68.2117054 C144.782433,69.5304923 144.9551,70.834133 145.312855,72.1185378 C145.709991,73.5436517 146.163622,74.944683 146.788861,76.2824028 C147.114506,76.9795862 147.587373,77.5845288 148.224729,78.0495197 C148.581424,78.3095814 149.433099,79.0085824 150.648891,79.0328165 C150.763549,79.0349369 150.880175,78.965264 150.990894,78.9170988 C152.321041,78.337602 153.541983,77.5674135 154.738842,76.7564814 C154.847593,76.683022 154.954071,76.5754834 155.009658,76.4591599 C155.280776,75.8917801 155.566587,75.3281869 155.788328,74.7409654 C156.668782,72.4087406 157.13862,69.9836691 157.31265,67.504071 C157.446544,65.5973053 157.32916,63.6962952 157.081215,61.8001319 C156.889615,60.3347289 156.652424,58.8793225 156.284066,57.4489074 M155.063579,38.5031782 C155.072969,38.6563071 155.084329,38.8114051 155.117651,38.9604445 C155.191565,39.2910879 155.383165,39.3943855 155.686091,39.2629158 C156.361312,38.9702896 157.03926,38.6825102 157.703727,38.3662558 C158.201131,38.1295194 158.6793,37.851888 159.165344,37.591069 C159.309688,37.5136714 159.39269,37.413706 159.376786,37.2252862 C159.287423,36.1718622 159.210631,35.1175293 159.127327,34.0351759 C158.772752,33.9009798 158.465737,33.9577784 158.161297,34.0868247 C158.006805,34.1524081 157.84898,34.2102669 157.692368,34.2708521 C157.197236,34.4627555 156.691956,34.6323939 156.210001,34.8529237 C155.852094,35.0168065 155.529478,35.2556634 155.181114,35.443023 C154.95604,35.5640418 154.896212,35.7418592 154.911056,35.9766266 C154.964068,36.8186085 155.011021,37.6610448 155.063579,38.5031782" id="Fill-1"></path>
        </g>
    </g>
</svg>