<?xml version="1.0" encoding="UTF-8"?>
<svg width="514px" height="141px" viewBox="0 0 514 141" version="1.1" xmlns="http://www.w3.org/2000/svg" xmlns:xlink="http://www.w3.org/1999/xlink">
    <!-- Generator: Sketch 48.2 (47327) - http://www.bohemiancoding.com/sketch -->
    <title>Group 2</title>
    <desc>Created with Sketch.</desc>
    <defs></defs>
    <g id="0.0-Splash" stroke="none" stroke-width="1" fill="none" fill-rule="evenodd" transform="translate(-423.000000, -464.000000)">
        <g id="Group-2" transform="translate(423.000000, 464.000000)">
            <g id="Group" fill="#85FF00">
                <rect id="Rectangle-4" x="48" y="0" width="466" height="77"></rect>
                <rect id="Rectangle-4" x="0" y="64" width="219" height="77"></rect>
            </g>
            <path d="M101.979167,44.875 L108.104167,12.5 L117.447917,12.5 L107.354167,58 L97.9166667,58 L90.5104167,27.5625 L83.1041667,58 L73.6666667,58 L63.5729167,12.5 L72.9166667,12.5 L79.0729167,44.8125 L86.5729167,12.5 L94.5104167,12.5 L101.979167,44.875 Z M137.399306,58.625 C132.440947,58.625 128.404529,57.1041819 125.289931,54.0625 C122.175332,51.0208181 120.618056,46.9687753 120.618056,41.90625 L120.618056,41.03125 C120.618056,37.6353997 121.274299,34.5989717 122.586806,31.921875 C123.899312,29.2447783 125.758669,27.1822989 128.164931,25.734375 C130.571193,24.2864511 133.315957,23.5625 136.399306,23.5625 C141.024329,23.5625 144.664917,25.0208187 147.321181,27.9375 C149.977444,30.8541813 151.305556,34.9895566 151.305556,40.34375 L151.305556,44.03125 L129.774306,44.03125 C130.065974,46.2395944 130.946173,48.01041 132.414931,49.34375 C133.883688,50.67709 135.743044,51.34375 137.993056,51.34375 C141.47224,51.34375 144.190962,50.0833459 146.149306,47.5625 L150.586806,52.53125 C149.232632,54.4479262 147.399317,55.942703 145.086806,57.015625 C142.774294,58.088547 140.21182,58.625 137.399306,58.625 Z M136.368056,30.875 C134.57638,30.875 133.123269,31.4791606 132.008681,32.6875 C130.894092,33.8958394 130.180557,35.6249887 129.868056,37.875 L142.430556,37.875 L142.430556,37.15625 C142.388889,35.15624 141.847227,33.6093805 140.805556,32.515625 C139.763884,31.4218695 138.284732,30.875 136.368056,30.875 Z M172.739583,40.84375 C172.739583,35.5728903 173.921863,31.3750156 176.286458,28.25 C178.651054,25.1249844 181.885396,23.5625 185.989583,23.5625 C189.281266,23.5625 191.999989,24.7916544 194.145833,27.25 L194.145833,10 L203.208333,10 L203.208333,58 L195.052083,58 L194.614583,54.40625 C192.364572,57.2187641 189.468768,58.625 185.927083,58.625 C181.947897,58.625 178.75522,57.0573073 176.348958,53.921875 C173.942696,50.7864427 172.739583,46.4271112 172.739583,40.84375 Z M181.770833,41.5 C181.770833,44.6666825 182.322911,47.0937416 183.427083,48.78125 C184.531256,50.4687584 186.135406,51.3125 188.239583,51.3125 C191.031264,51.3125 192.999994,50.1354284 194.145833,47.78125 L194.145833,34.4375 C193.020828,32.0833216 191.072931,30.90625 188.302083,30.90625 C183.947895,30.90625 181.770833,34.4374647 181.770833,41.5 Z M226.659722,58.625 C221.701364,58.625 217.664946,57.1041819 214.550347,54.0625 C211.435748,51.0208181 209.878472,46.9687753 209.878472,41.90625 L209.878472,41.03125 C209.878472,37.6353997 210.534716,34.5989717 211.847222,31.921875 C213.159729,29.2447783 215.019085,27.1822989 217.425347,25.734375 C219.831609,24.2864511 222.576374,23.5625 225.659722,23.5625 C230.284745,23.5625 233.925334,25.0208187 236.581597,27.9375 C239.237861,30.8541813 240.565972,34.9895566 240.565972,40.34375 L240.565972,44.03125 L219.034722,44.03125 C219.32639,46.2395944 220.20659,48.01041 221.675347,49.34375 C223.144105,50.67709 225.003461,51.34375 227.253472,51.34375 C230.732656,51.34375 233.451379,50.0833459 235.409722,47.5625 L239.847222,52.53125 C238.493049,54.4479262 236.659734,55.942703 234.347222,57.015625 C232.034711,58.088547 229.472236,58.625 226.659722,58.625 Z M225.628472,30.875 C223.836797,30.875 222.383686,31.4791606 221.269097,32.6875 C220.154508,33.8958394 219.440974,35.6249887 219.128472,37.875 L231.690972,37.875 L231.690972,37.15625 C231.649305,35.15624 231.107644,33.6093805 230.065972,32.515625 C229.0243,31.4218695 227.545149,30.875 225.628472,30.875 Z M260.642361,51.34375 C262.309036,51.34375 263.663189,50.8854213 264.704861,49.96875 C265.746533,49.0520787 266.288194,47.8333409 266.329861,46.3125 L274.798611,46.3125 C274.777778,48.6041781 274.152784,50.7031155 272.923611,52.609375 C271.694438,54.5156345 270.012164,55.9947864 267.876736,57.046875 C265.741309,58.0989636 263.381957,58.625 260.798611,58.625 C255.965254,58.625 252.152792,57.088557 249.361111,54.015625 C246.569431,50.942693 245.173611,46.6979438 245.173611,41.28125 L245.173611,40.6875 C245.173611,35.4791406 246.559014,31.3229322 249.329861,28.21875 C252.100708,25.1145678 255.902754,23.5625 260.736111,23.5625 C264.965299,23.5625 268.35589,24.765613 270.907986,27.171875 C273.460082,29.578137 274.756944,32.78123 274.798611,36.78125 L266.329861,36.78125 C266.288194,35.0312412 265.746533,33.6093805 264.704861,32.515625 C263.663189,31.4218695 262.288203,30.875 260.579861,30.875 C258.475684,30.875 256.887158,31.6406173 255.814236,33.171875 C254.741314,34.7031327 254.204861,37.1874828 254.204861,40.625 L254.204861,41.5625 C254.204861,45.0416841 254.736106,47.5416591 255.798611,49.0625 C256.861116,50.5833409 258.475684,51.34375 260.642361,51.34375 Z M279.4375,40.78125 C279.4375,37.4270666 280.083327,34.4375131 281.375,31.8125 C282.666673,29.1874869 284.52603,27.1562572 286.953125,25.71875 C289.380221,24.2812428 292.197901,23.5625 295.40625,23.5625 C299.968773,23.5625 303.692694,24.9583194 306.578125,27.75 C309.463556,30.5416806 311.072915,34.3333094 311.40625,39.125 L311.46875,41.4375 C311.46875,46.6250259 310.020848,50.7864427 307.125,53.921875 C304.229152,57.0573073 300.343774,58.625 295.46875,58.625 C290.593726,58.625 286.70314,57.0625156 283.796875,53.9375 C280.890611,50.8124844 279.4375,46.5625269 279.4375,41.1875 L279.4375,40.78125 Z M288.46875,41.4375 C288.46875,44.6458494 289.072911,47.0989498 290.28125,48.796875 C291.489589,50.4948002 293.218739,51.34375 295.46875,51.34375 C297.656261,51.34375 299.364577,50.5052167 300.59375,48.828125 C301.822923,47.1510333 302.4375,44.4687684 302.4375,40.78125 C302.4375,37.6354009 301.822923,35.1979253 300.59375,33.46875 C299.364577,31.7395747 297.635428,30.875 295.40625,30.875 C293.197906,30.875 291.489589,31.7343664 290.28125,33.453125 C289.072911,35.1718836 288.46875,37.8333153 288.46875,41.4375 Z M326.388889,24.1875 L326.670139,27.96875 C329.065984,25.0312353 332.305535,23.5625 336.388889,23.5625 C340.743077,23.5625 343.732631,25.2812328 345.357639,28.71875 C347.732651,25.2812328 351.118034,23.5625 355.513889,23.5625 C359.180574,23.5625 361.909713,24.6301977 363.701389,26.765625 C365.493065,28.9010523 366.388889,32.1145619 366.388889,36.40625 L366.388889,58 L357.326389,58 L357.326389,36.4375 C357.326389,34.5208237 356.951393,33.1197961 356.201389,32.234375 C355.451385,31.3489539 354.128482,30.90625 352.232639,30.90625 C349.524292,30.90625 347.649311,32.1979037 346.607639,34.78125 L346.638889,58 L337.607639,58 L337.607639,36.46875 C337.607639,34.5104069 337.222226,33.0937544 336.451389,32.21875 C335.680552,31.3437456 334.368065,30.90625 332.513889,30.90625 C329.951376,30.90625 328.097228,31.9687394 326.951389,34.09375 L326.951389,58 L317.920139,58 L317.920139,24.1875 L326.388889,24.1875 Z M404.652778,41.40625 C404.652778,46.6146094 403.470498,50.7864427 401.105903,53.921875 C398.741308,57.0573073 395.548631,58.625 391.527778,58.625 C388.111094,58.625 385.350705,57.4375119 383.246528,55.0625 L383.246528,71 L374.215278,71 L374.215278,24.1875 L382.590278,24.1875 L382.902778,27.5 C385.090289,24.8749869 387.944427,23.5625 391.465278,23.5625 C395.631965,23.5625 398.871516,25.1041512 401.184028,28.1875 C403.496539,31.2708487 404.652778,35.5208062 404.652778,40.9375 L404.652778,41.40625 Z M395.621528,40.75 C395.621528,37.6041509 395.064242,35.1770919 393.949653,33.46875 C392.835064,31.7604081 391.215288,30.90625 389.090278,30.90625 C386.25693,30.90625 384.309033,31.9895725 383.246528,34.15625 L383.246528,48 C384.3507,50.2291778 386.31943,51.34375 389.152778,51.34375 C393.465299,51.34375 395.621528,47.8125353 395.621528,40.75 Z M420.666667,58 L411.604167,58 L411.604167,10 L420.666667,10 L420.666667,58 Z M444.555556,58.625 C439.597198,58.625 435.56078,57.1041819 432.446181,54.0625 C429.331582,51.0208181 427.774306,46.9687753 427.774306,41.90625 L427.774306,41.03125 C427.774306,37.6353997 428.430549,34.5989717 429.743056,31.921875 C431.055562,29.2447783 432.914919,27.1822989 435.321181,25.734375 C437.727443,24.2864511 440.472207,23.5625 443.555556,23.5625 C448.180579,23.5625 451.821167,25.0208187 454.477431,27.9375 C457.133694,30.8541813 458.461806,34.9895566 458.461806,40.34375 L458.461806,44.03125 L436.930556,44.03125 C437.222224,46.2395944 438.102423,48.01041 439.571181,49.34375 C441.039938,50.67709 442.899294,51.34375 445.149306,51.34375 C448.62849,51.34375 451.347213,50.0833459 453.305556,47.5625 L457.743056,52.53125 C456.388882,54.4479262 454.555567,55.942703 452.243056,57.015625 C449.930544,58.088547 447.36807,58.625 444.555556,58.625 Z M443.524306,30.875 C441.73263,30.875 440.27952,31.4791606 439.164931,32.6875 C438.050342,33.8958394 437.336807,35.6249887 437.024306,37.875 L449.586806,37.875 L449.586806,37.15625 C449.545139,35.15624 449.003478,33.6093805 447.961806,32.515625 C446.920134,31.4218695 445.440982,30.875 443.524306,30.875 Z M477.350695,34.28125 L483.038195,24.1875 L492.694445,24.1875 L483.069445,40.75 L493.100695,58 L483.413195,58 L477.381945,47.375 L471.381945,58 L461.663195,58 L471.694445,40.75 L462.100695,24.1875 L471.788195,24.1875 L477.350695,34.28125 Z M14.0625,104.84375 C14.0625,99.5728903 15.2447798,95.3750156 17.609375,92.25 C19.9739702,89.1249844 23.2083128,87.5625 27.3125,87.5625 C30.6041831,87.5625 33.3229059,88.7916544 35.46875,91.25 L35.46875,74 L44.53125,74 L44.53125,122 L36.375,122 L35.9375,118.40625 C33.6874887,121.218764 30.7916844,122.625 27.25,122.625 C23.2708134,122.625 20.078137,121.057307 17.671875,117.921875 C15.265613,114.786443 14.0625,110.427111 14.0625,104.84375 Z M23.09375,105.5 C23.09375,108.666682 23.6458278,111.093742 24.75,112.78125 C25.8541722,114.468758 27.4583228,115.3125 29.5625,115.3125 C32.3541806,115.3125 34.3229109,114.135428 35.46875,111.78125 L35.46875,98.4375 C34.3437444,96.0833216 32.3958472,94.90625 29.625,94.90625 C25.2708116,94.90625 23.09375,98.4374647 23.09375,105.5 Z M61.9513889,122 L52.8888889,122 L52.8888889,88.1875 L61.9513889,88.1875 L61.9513889,122 Z M52.3576389,79.4375 C52.3576389,78.0833266 52.8107594,76.9687544 53.7170139,76.09375 C54.6232684,75.2187456 55.8576311,74.78125 57.4201389,74.78125 C58.9618133,74.78125 60.1909676,75.2187456 61.1076389,76.09375 C62.0243101,76.9687544 62.4826389,78.0833266 62.4826389,79.4375 C62.4826389,80.8125069 62.0191019,81.9374956 61.0920139,82.8125 C60.1649259,83.6875044 58.9409798,84.125 57.4201389,84.125 C55.899298,84.125 54.6753519,83.6875044 53.7482639,82.8125 C52.8211759,81.9374956 52.3576389,80.8125069 52.3576389,79.4375 Z M68.9652778,104.84375 C68.9652778,99.6562241 70.1996404,95.4791825 72.6684028,92.3125 C75.1371651,89.1458175 78.4652569,87.5625 82.6527778,87.5625 C86.3611297,87.5625 89.2465175,88.8333206 91.3090278,91.375 L91.6840278,88.1875 L99.8715278,88.1875 L99.8715278,120.875 C99.8715278,123.833348 99.1996595,126.406239 97.8559028,128.59375 C96.5121461,130.781261 94.62154,132.447911 92.1840278,133.59375 C89.7465156,134.739589 86.8923775,135.3125 83.6215278,135.3125 C81.1423487,135.3125 78.7257062,134.817713 76.3715278,133.828125 C74.0173494,132.838537 72.2361172,131.562508 71.0277778,130 L75.0277778,124.5 C77.277789,127.020846 80.0069284,128.28125 83.2152778,128.28125 C85.6111231,128.28125 87.4756878,127.640631 88.8090278,126.359375 C90.1423678,125.078119 90.8090278,123.260428 90.8090278,120.90625 L90.8090278,119.09375 C88.725684,121.447928 85.9861281,122.625 82.5902778,122.625 C78.5277575,122.625 75.241332,121.036474 72.7309028,117.859375 C70.2204736,114.682276 68.9652778,110.468776 68.9652778,105.21875 L68.9652778,104.84375 Z M77.9965278,105.5 C77.9965278,108.562515 78.611105,110.963533 79.8402778,112.703125 C81.0694506,114.442717 82.7569337,115.3125 84.9027778,115.3125 C87.6527915,115.3125 89.6215219,114.28126 90.8090278,112.21875 L90.8090278,98 C89.6006884,95.9374897 87.6527912,94.90625 84.9652778,94.90625 C82.7986003,94.90625 81.0954923,95.7916578 79.8559028,97.5625 C78.6163133,99.3333422 77.9965278,101.979149 77.9965278,105.5 Z M117.229167,122 L108.166667,122 L108.166667,88.1875 L117.229167,88.1875 L117.229167,122 Z M107.635417,79.4375 C107.635417,78.0833266 108.088537,76.9687544 108.994792,76.09375 C109.901046,75.2187456 111.135409,74.78125 112.697917,74.78125 C114.239591,74.78125 115.468745,75.2187456 116.385417,76.09375 C117.302088,76.9687544 117.760417,78.0833266 117.760417,79.4375 C117.760417,80.8125069 117.29688,81.9374956 116.369792,82.8125 C115.442704,83.6875044 114.218758,84.125 112.697917,84.125 C111.177076,84.125 109.95313,83.6875044 109.026042,82.8125 C108.098954,81.9374956 107.635417,80.8125069 107.635417,79.4375 Z M136.368056,79.875 L136.368056,88.1875 L142.149306,88.1875 L142.149306,94.8125 L136.368056,94.8125 L136.368056,111.6875 C136.368056,112.937506 136.607637,113.833331 137.086806,114.375 C137.565975,114.916669 138.482632,115.1875 139.836806,115.1875 C140.836811,115.1875 141.722218,115.114584 142.493056,114.96875 L142.493056,121.8125 C140.722213,122.354169 138.899315,122.625 137.024306,122.625 C130.690941,122.625 127.461806,119.427115 127.336806,113.03125 L127.336806,94.8125 L122.399306,94.8125 L122.399306,88.1875 L127.336806,88.1875 L127.336806,79.875 L136.368056,79.875 Z M167.663194,122 C167.246526,121.187496 166.944445,120.177089 166.756944,118.96875 C164.569434,121.406262 161.725712,122.625 158.225694,122.625 C154.913178,122.625 152.168414,121.666676 149.991319,119.75 C147.814225,117.833324 146.725694,115.416681 146.725694,112.5 C146.725694,108.916649 148.053806,106.166676 150.710069,104.25 C153.366333,102.333324 157.204836,101.364583 162.225694,101.34375 L166.381944,101.34375 L166.381944,99.40625 C166.381944,97.8437422 165.980907,96.5937547 165.178819,95.65625 C164.376732,94.7187453 163.11112,94.25 161.381944,94.25 C159.861104,94.25 158.668407,94.6145797 157.803819,95.34375 C156.939232,96.0729203 156.506944,97.0729103 156.506944,98.34375 L147.475694,98.34375 C147.475694,96.3854069 148.079855,94.572925 149.288194,92.90625 C150.496534,91.239575 152.20485,89.9322964 154.413194,88.984375 C156.621539,88.0364536 159.100681,87.5625 161.850694,87.5625 C166.017382,87.5625 169.324641,88.6093645 171.772569,90.703125 C174.220498,92.7968855 175.444444,95.7395644 175.444444,99.53125 L175.444444,114.1875 C175.465278,117.395849 175.91319,119.822908 176.788194,121.46875 L176.788194,122 L167.663194,122 Z M160.194444,115.71875 C161.527784,115.71875 162.756939,115.421878 163.881944,114.828125 C165.00695,114.234372 165.840275,113.437505 166.381944,112.4375 L166.381944,106.625 L163.006944,106.625 C158.486089,106.625 156.079863,108.187484 155.788194,111.3125 L155.756944,111.84375 C155.756944,112.968756 156.152774,113.89583 156.944444,114.625 C157.736115,115.35417 158.819438,115.71875 160.194444,115.71875 Z M192.802083,122 L183.739583,122 L183.739583,74 L192.802083,74 L192.802083,122 Z M201.597222,117.5625 C201.597222,116.124993 202.081592,114.958338 203.050347,114.0625 C204.019102,113.166662 205.232632,112.71875 206.690972,112.71875 C208.170146,112.71875 209.394092,113.166662 210.362847,114.0625 C211.331602,114.958338 211.815972,116.124993 211.815972,117.5625 C211.815972,118.979174 211.33681,120.130204 210.378472,121.015625 C209.420134,121.901046 208.19098,122.34375 206.690972,122.34375 C205.211798,122.34375 203.99306,121.901046 203.034722,121.015625 C202.076384,120.130204 201.597222,118.979174 201.597222,117.5625 Z" id="We-decomplex-digital" fill="#000000"></path>
        </g>
    </g>
</svg>